<svg width="157" height="170" viewBox="0 0 157 170" fill="none" xmlns="http://www.w3.org/2000/svg">
<path d="M98.2629 47.6938V65.4117H58.0625V47.6938C58.0625 43.572 61.8232 40.2517 66.4916 40.2517H89.8014C94.5023 40.2231 98.2629 43.572 98.2629 47.6938Z" fill="white"/>
<path d="M78.1962 65.4116H58.0959V47.6936C58.0959 43.5719 61.8567 40.2515 66.5251 40.2515H78.1638V60.7459L78.1962 65.4116Z" fill="#8AF3FF"/>
<path d="M91.3249 165.536C87.7263 168.341 83.2848 169.772 78.8108 169.972C73.5264 170.23 68.1448 168.656 63.9951 165.25C-32.8426 86.621 1.65192 42.6553 34.6552 42.9702C66.9128 43.2564 77.6113 63.0351 78.8108 65.5254C78.9081 65.6971 78.9406 65.7831 78.9406 65.7831C78.9406 65.7831 89.3797 43.514 123.809 43.8289C156.78 44.201 190.173 88.8535 91.3249 165.536Z" fill="#FF5287"/>
<path d="M78.1952 65.5261V169.944C72.9108 170.202 67.5291 168.628 63.3794 165.222C-33.4583 86.593 1.0362 42.6274 34.0395 42.9422C66.2971 43.2571 76.9633 63.0645 78.1952 65.5261Z" fill="#FF2E60"/>
<path d="M100.598 67.1568C119.044 49.9541 148.384 60.8882 133.731 95.0933" stroke="white" stroke-width="2" stroke-miterlimit="10"/>
<path d="M83.4789 36.0747C81.8021 37.4357 78.9959 39.1556 78.9959 39.1556C78.9959 39.1556 77.3642 34.6781 76.6037 31.7839C75.7963 28.7112 75.0514 23.9 75.0514 23.9C75.0514 23.9 74.2208 19.5219 74.3235 16.552L74.3253 16.4996C74.413 13.962 74.4709 12.2878 75.2503 9.92637C75.9043 7.94472 76.3378 6.77017 77.5365 5.24186C78.723 3.72913 79.6244 3.13007 81.1849 2.32378C82.9286 1.4228 84.0392 1.07946 85.9179 1.16821C87.5851 1.24697 88.5498 1.57222 90.0613 2.45013C91.9162 3.52741 92.9078 4.50175 94.165 6.52677C95.1471 8.10865 95.6457 9.14759 96.0421 11.0958C96.5119 13.405 96.3337 14.8667 95.9551 17.2093C95.5473 19.7324 94.9559 21.0658 93.9263 23.2951C92.51 26.3618 91.2666 27.7375 89.25 30.2168C87.1785 32.7635 85.9115 34.1003 83.4789 36.0747Z" stroke="white" stroke-width="2"/>
</svg>
